<svg width="116" height="32" viewBox="0 0 116 32" fill="none" xmlns="http://www.w3.org/2000/svg">
<path d="M38.6621 16.1526C38.6036 14.7347 37.8805 13.5079 36.8345 12.4655C36.7082 13.2758 35.8986 16.6169 34.1599 17.978C33.5258 18.4719 32.8659 18.9612 31.8738 19.116C29.7023 19.4437 28.2468 19.4027 25.9115 18.4946C24.8328 18.0736 23.5715 16.9242 21.7698 16.6738C20.2815 16.4576 15.5524 17.9598 15.5524 17.9598C15.5524 17.9598 19.2964 13.9039 23.4358 14.9827C25.0585 15.4003 26.7058 15.7218 28.3685 15.9455C28.5116 15.9675 28.6566 15.9759 28.8014 15.9705C32.0586 15.818 33.6124 12.6385 33.5328 10.144C31.9035 9.27679 30.1831 8.58242 28.4013 8.07281C27.5752 7.81108 18.2434 4.98656 10.5753 10.5263C9.11282 11.5847 6.70264 13.3804 6.36334 16.2528C6.07787 18.6198 7.33911 20.5294 7.82349 21.2395C10.7508 25.5457 15.8309 26.3218 19.6919 26.6222C23.0591 26.8862 29.0682 27.0774 33.7645 24.3667C35.2083 23.5291 38.8212 20.1424 38.6621 16.1526Z" fill="#AC6006"/>
<path d="M22.1372 16.0091C22.1372 16.0091 23.5763 15.8429 24.4374 16.0227C25.2588 16.1768 26.0712 16.3736 26.871 16.6122C27.44 16.8221 28.041 16.9382 28.6493 16.9559C29.934 16.9991 31.3895 16.462 32.7724 15.3354C34.2302 14.1496 34.4548 12.1968 34.5344 10.9609C34.5906 10.071 34.1881 8.10224 33.7084 7.3193C33.3017 6.64025 32.7599 6.04681 32.1149 5.57361C31.5182 5.13559 30.8796 4.75449 30.2078 4.43561C29.3579 3.98718 28.4721 3.6066 27.5589 3.29761C26.7248 3.00109 25.8626 2.78534 24.9849 2.6535C23.8905 2.51042 22.7828 2.48827 21.6832 2.58749C20.6103 2.63684 19.5418 2.75392 18.4845 2.938C16.4159 3.29065 14.4148 3.94841 12.5503 4.88853C9.70254 6.352 8.38513 8.01803 8.26345 7.8883C8.11136 7.7176 10.1167 4.9864 13.3389 3.1178C14.4484 2.48244 15.6323 1.97888 16.8652 1.61792C18.2682 1.20776 19.7205 0.978201 21.1848 0.935118C23.2994 0.805283 25.4215 1.02069 27.463 1.5724C29.0214 1.99346 30.7249 2.45321 32.4939 3.8484C33.458 4.60403 34.731 5.60092 35.4353 7.41717C36.4579 10.055 36.0835 13.378 35.0609 15.2216C34.8043 15.737 34.4717 16.2132 34.0734 16.635C33.5558 17.1504 32.9522 17.5768 32.288 17.8959C31.9206 18.0939 31.118 18.2873 30.3037 18.433C29.2013 18.5163 28.0959 18.3137 27.1003 17.8458C25.1347 16.899 24.6854 16.7533 24.6854 16.7533C23.8574 16.4406 23.0054 16.1917 22.1372 16.0091Z" fill="#46962B"/>
<path d="M7.38784 7.62439C7.31361 6.77402 7.11911 5.93767 6.80987 5.139C5.93705 3.18619 5.09466 2.80155 4.88874 2.71051C4.62667 2.60126 4.18675 2.42146 3.86617 2.61719C3.2765 2.96314 3.36074 4.30143 3.71408 5.18224C4.04436 5.92862 4.61186 6.55241 5.33334 6.96208C5.57904 7.1305 7.38784 7.62439 7.38784 7.62439Z" fill="#46962B"/>
<path d="M7.49801 8.65771C7.49801 8.65771 5.49967 8.73737 4.02782 9.34051C1.27834 10.4649 0.67931 11.6393 0.548271 11.926C0.379793 12.2902 0.101335 12.8911 0.347033 13.369C0.784609 14.2248 2.63787 14.1816 3.8804 13.7264C5.25163 13.2256 5.98638 12.1832 6.45438 11.5323C6.69305 11.1909 7.49801 8.65771 7.49801 8.65771Z" fill="#46962B"/>
<path d="M47.2483 24.4782L45.1952 24.3849L44.8686 9.28974L47.085 9.17308L52.6845 19.7653L52.5211 8.91644L54.8076 9.07976L54.4109 24.5248L52.9878 24.4782L46.7584 13.1393L47.2483 24.4782ZM67.0871 8.91644L67.2971 15.2391C67.2971 18.6766 66.7683 21.103 65.7106 22.5184C65.2906 23.0783 64.7229 23.5294 64.0074 23.8716C63.3075 24.2138 62.5454 24.3849 61.721 24.3849C60.9122 24.3849 60.2512 24.2604 59.7379 24.0116C59.2246 23.7627 58.8046 23.3816 58.478 22.8683C58.1514 22.3551 57.8792 21.8107 57.6614 21.2352C57.4437 20.6441 57.2803 19.9209 57.1715 19.0654C57.0159 17.6811 56.9382 16.0013 56.9382 14.0259V9.28974L59.0846 9.0331C59.0535 10.8685 59.0379 12.3772 59.0379 13.5593C59.0379 14.7414 59.0691 15.838 59.1313 16.849C59.209 17.86 59.349 18.8165 59.5512 19.7187C59.9556 21.4918 60.7567 22.3784 61.9543 22.3784C63.0431 22.3784 63.8519 21.764 64.3807 20.5353C64.9096 19.2909 65.174 17.3545 65.174 14.7258C65.174 13.1705 65.0884 11.2962 64.9173 9.10309L67.0871 8.91644ZM68.52 9.14975L78.6689 9.24308L78.4823 10.9929L74.5394 11.0162L74.726 24.2449L72.4862 24.2215L72.5329 11.0162L68.5666 11.0396L68.52 9.14975ZM83.1014 9.05643C84.999 9.05643 86.4222 9.49194 87.371 10.363C88.3198 11.234 88.7942 12.2839 88.7942 13.5126C88.7942 15.3636 87.8532 16.7867 85.9711 17.7822L89.1442 23.8249L87.0677 24.5715L84.1513 18.2488L82.0282 18.2255L82.1915 24.1749L80.1851 24.3149L79.9284 9.40639C81.5927 9.17308 82.6504 9.05643 83.1014 9.05643ZM81.7482 10.9229V16.4523C82.0593 16.4834 82.456 16.499 82.9381 16.499C83.8714 16.499 84.7735 16.2424 85.6445 15.7291C86.5155 15.2002 86.951 14.4925 86.951 13.606C86.951 12.7194 86.6166 12.0039 85.9478 11.4595C85.2945 10.9151 84.5635 10.6429 83.7547 10.6429C82.9459 10.6429 82.2771 10.7363 81.7482 10.9229ZM90.7591 9.14975L93.0455 9.0331L92.7889 24.1749L90.8991 24.2449L90.7591 9.14975ZM98.4352 9.05643C100.333 9.05643 101.756 9.49194 102.705 10.363C103.654 11.234 104.128 12.2839 104.128 13.5126C104.128 15.3636 103.187 16.7867 101.305 17.7822L104.478 23.8249L102.401 24.5715L99.485 18.2488L97.3619 18.2255L97.5253 24.1749L95.5188 24.3149L95.2621 9.40639C96.9264 9.17308 97.9841 9.05643 98.4352 9.05643ZM97.082 10.9229V16.4523C97.393 16.4834 97.7897 16.499 98.2718 16.499C99.2051 16.499 100.107 16.2424 100.978 15.7291C101.849 15.2002 102.285 14.4925 102.285 13.606C102.285 12.7194 101.95 12.0039 101.282 11.4595C100.628 10.9151 99.8972 10.6429 99.0884 10.6429C98.2796 10.6429 97.6108 10.7363 97.082 10.9229ZM105.743 9.31307L112.812 8.93977L112.905 11.0162L107.819 10.9929L107.913 15.4724L111.996 15.4024L111.972 17.4556L107.983 17.3622V22.3317L113.022 22.1917V24.3149L106.023 24.2215L105.743 9.31307Z" fill="#592C05"/>
</svg>
