<svg width="1284" height="2778" viewBox="0 0 1284 2778" fill="none" xmlns="http://www.w3.org/2000/svg">
<g clip-path="url(#clip0_60_26)">
<rect width="1284" height="2778" fill="#FAEFDC"/>
<path d="M760.183 2402.77C751.633 2418.27 744.221 2434.29 737.619 2450.64C722.896 2486.98 658.674 2596.8 488.791 2638.87C123.051 2729.44 228.187 3121.34 600.515 3119.08C972.844 3116.82 1007.62 3133.03 1255.28 3236.29C1502.94 3339.55 1836.15 3082.31 1584.06 2533.35C1457.25 2256.99 967.352 2026.45 760.183 2402.77Z" fill="#AECC53"/>
<path d="M416.422 -287.547C426.894 -275.983 436.465 -263.652 445.386 -250.813C465.262 -222.279 542.651 -141.345 699.906 -149.299C1038.46 -166.436 1020.98 212.043 693.512 309.878C366.045 407.713 338.593 431.523 140.788 590.237C-57.0168 748.952 -398.84 608.391 -282.284 50.1202C-223.698 -230.903 162.562 -568.348 416.422 -287.547Z" fill="#AECC53"/>
<path d="M1155.53 1992.01C1159.09 1979.26 1162.65 1966.51 1166.21 1953.75C1166.08 1977.24 1167.38 2003.3 1171.11 2031.41C1178.62 2088.29 1193.73 2136.29 1208.99 2173.68C1205.09 2175.74 1201.19 2177.81 1197.3 2179.87C1185.01 2153.7 1171.87 2119.06 1163.67 2077.13C1157.36 2044.94 1155.48 2016.02 1155.53 1992.01Z" fill="#006B2D"/>
<path d="M1214.51 2049.93C1223.53 2040.04 1232.57 2030.18 1241.56 2020.32C1230.73 2041.28 1219.98 2065.19 1210.47 2091.94C1191.23 2146.11 1182.85 2195.61 1179.45 2235.69C1175.02 2235.85 1170.55 2236 1166.12 2236.16C1167.07 2207.41 1171.1 2170.71 1182.89 2129.63C1191.97 2098.08 1203.48 2071.38 1214.51 2049.93Z" fill="#006B2D"/>
<path d="M1316.85 2223.72C1325.03 2262.87 1333.45 2335.74 1302.76 2428.69C1219.89 2375.79 1177.22 2315.99 1156.28 2280.4C1132.69 2240.39 1104.11 2191.88 1124.3 2149.19C1139.7 2116.59 1176.61 2102.09 1179.89 2100.84C1188.9 2097.45 1217.7 2087.91 1244.81 2097.07C1293.86 2113.65 1308.03 2181.55 1316.85 2223.72Z" fill="#EF7D00"/>
<path d="M1269.08 2055.98C1269.1 2061.5 1262.53 2067.46 1252.76 2068.36C1245.99 2062.92 1239.63 2058.11 1239 2058.73C1238.15 2059.62 1250.09 2068.72 1248.03 2073.21C1245.69 2078.34 1224.63 2078.83 1212.45 2067.57C1200.06 2056.13 1199.66 2035.16 1205.06 2032.49C1209.74 2030.16 1220.14 2040.83 1220.95 2039.9C1221.7 2039.03 1210.53 2032.16 1210.43 2022.86C1210.39 2017.55 1213.9 2011.07 1219.42 2009.93C1224.19 2008.93 1228.93 2012.29 1231.34 2015.25C1236.13 2021.15 1234.66 2029.06 1236 2029.17C1237.44 2029.28 1237.41 2021.24 1242.42 2016.68C1247.1 2012.44 1254.56 2012.7 1260.53 2013.74C1262.12 2020.64 1262.65 2028.99 1257.89 2034.8C1253.55 2040.08 1246.06 2041.71 1246.52 2043.23C1246.96 2044.72 1253.86 2042.18 1260.65 2045.48C1264.42 2047.28 1269.1 2051.33 1269.08 2055.98Z" fill="#006B2D"/>
<path d="M1278.84 1918.28C1284.43 1929.36 1270.29 1951.16 1242.42 1969.65C1220.48 1966.05 1200.24 1963.3 1199.72 1965.49C1198.99 1968.47 1237.06 1973.74 1238.41 1986.16C1239.96 2000.28 1194.44 2027.43 1153.04 2017.74C1110.99 2007.88 1082.7 1962.27 1091.1 1949.67C1098.33 1938.81 1135.03 1949.39 1135.57 1946.37C1136.13 1943.36 1103.72 1941.38 1090.29 1921.87C1080.42 1907.49 1083.91 1888.07 1088.85 1873.26C1099.52 1872.06 1113.36 1872.34 1126.21 1879.26C1143.6 1888.62 1151.16 1905.76 1154.6 1904.09C1158.17 1902.38 1147.54 1885.3 1152.36 1868.72C1156.77 1853.56 1172.46 1844.5 1185.42 1839.17C1199.48 1852.89 1212.58 1870.72 1209.92 1889.48C1207.51 1906.54 1192.84 1918.85 1196.01 1922.09C1198.91 1925.08 1210.54 1913.87 1229.95 1909.59C1247.84 1905.62 1273.32 1907.36 1278.84 1918.28Z" fill="#006B2D"/>
<path opacity="0.5" d="M1306.69 2182.96C1297.59 2189.45 1286.33 2196.37 1272.87 2202.55C1248.76 2213.67 1226.5 2218.34 1209.99 2220.43C1221 2210.97 1240.28 2197.02 1267.81 2189.05C1282.68 2184.71 1296.09 2183.28 1306.69 2182.96Z" fill="#FAEFDC"/>
<path d="M1175.08 1896.92C1176.22 1902.76 1177.53 1911.67 1177.3 1922.5C1176.93 1938.79 1173.33 1950.21 1171.2 1958.27C1167.84 1971.16 1164.51 1990.38 1165.79 2016.39C1154.2 1987.78 1156.36 1969.07 1160.76 1957.06C1163.11 1950.73 1166.28 1945.64 1169.61 1934.76C1174.33 1919.4 1175.13 1905.98 1175.08 1896.92Z" fill="#46962B"/>
<path d="M1245.9 2033.39C1244.8 2035.38 1242.94 2038.32 1240.19 2041.44C1236.01 2046.16 1232.11 2048.66 1229.46 2050.55C1225.26 2053.55 1219.49 2058.43 1213.36 2066.38C1217.07 2055.23 1222.36 2050.21 1226.66 2047.72C1228.93 2046.4 1231.16 2045.66 1234.84 2043.25C1240.06 2039.81 1243.65 2036.07 1245.9 2033.39Z" fill="#46962B"/>
<path opacity="0.5" d="M1275.42 2275.55C1266.31 2282.03 1255.05 2288.95 1241.6 2295.13C1217.49 2306.25 1195.23 2310.92 1178.71 2313.01C1189.72 2303.55 1209.01 2289.61 1236.53 2281.63C1251.38 2277.31 1264.78 2275.86 1275.42 2275.55Z" fill="#FAEFDC"/>
<path d="M1342.81 2729.78C1345.16 2783.82 1319.26 2822.96 1307.57 2838.21C1269.41 2887.91 1215.08 2901 1181.83 2909.03C1150.81 2916.5 1103.93 2927.81 1049.64 2907.75C1034.67 2902.22 979.597 2880.89 949.872 2822.25C944.003 2810.65 917.055 2754.1 941.241 2694.68C945.716 2683.68 957.122 2656.76 986.412 2636.92C993.52 2632.12 1031.95 2606.11 1071.22 2616.97C1094.13 2623.31 1102.17 2638.05 1120.7 2634.79C1134.01 2632.45 1136.74 2623.65 1151.08 2612.91C1177.09 2593.4 1213.47 2588.28 1242.25 2594.41C1272.7 2600.91 1291.92 2619.42 1300.88 2628.29C1339.29 2666.24 1342.16 2715.03 1342.81 2729.78Z" fill="#C10B25"/>
<path d="M1115.76 2674.98C1092.63 2670.1 1075.26 2690.63 1067.21 2684.06C1058.97 2677.29 1075.77 2654.69 1067.08 2644.62C1054.8 2630.41 1008.6 2661.31 996.619 2648.4C987.723 2638.8 998.996 2606.45 1021.45 2592.39C1044.91 2577.72 1083.88 2581.04 1083.54 2581.05C1083.54 2581.05 1017.25 2571.84 1016.57 2560.68C1015.8 2547.93 1099.94 2521.93 1121.23 2547.82C1133.37 2562.62 1120.81 2589.21 1128.86 2592.51C1138.25 2596.36 1151.38 2558.83 1180.37 2553.9C1209.47 2548.98 1240.5 2579.29 1237.6 2586.19C1235.18 2591.92 1210.6 2578.89 1187.08 2591.68C1174.82 2598.35 1162.49 2612.3 1165.7 2621.59C1170.31 2634.85 1201.6 2624.12 1226.45 2642.43C1255.46 2663.78 1257.87 2711.59 1249.92 2715.15C1243.89 2717.84 1234.82 2693.86 1203.57 2677.19C1179.01 2664.08 1151.45 2661.21 1148.68 2667.09C1144.86 2675.28 1130.19 2678.01 1115.76 2674.98Z" fill="#006B2D"/>
<path opacity="0.5" d="M1021.79 2812.43C1057.56 2872.04 1132.26 2883.01 1128.92 2892.92C1126.24 2900.87 1076.42 2899.28 1034.51 2874.03C1025.53 2868.63 975.091 2838.26 967.295 2781.33C960.311 2730.45 990.771 2682.84 1001.22 2685.09C1013.27 2687.71 986.497 2753.6 1021.79 2812.43Z" fill="#FAEFDC"/>
<path opacity="0.5" d="M1277.24 2822.61C1304.69 2783.89 1295.12 2739.71 1302.04 2739.52C1307.71 2739.39 1318.23 2768.8 1311.16 2796.47C1305.97 2816.85 1292.68 2830.57 1286.51 2836.98C1282.96 2840.63 1275.77 2847.55 1265.07 2854.16C1244.63 2866.78 1220.12 2872.89 1218.46 2869.53C1216.44 2865.47 1253.58 2856.04 1277.24 2822.61Z" fill="#FAEFDC"/>
<path d="M1053.24 2596.85C1051.92 2594.03 1027.6 2596.94 1014.86 2613.62C1013.99 2614.76 1004.41 2627.54 1008.78 2633.8C1010.5 2636.28 1014.36 2637.71 1040.6 2635.32C1062.28 2633.35 1067.75 2631.62 1073.16 2635.23C1077.34 2638.03 1081.77 2644.28 1081.65 2659.71C1083.28 2656.51 1090.34 2641.95 1083.75 2632.74C1080.16 2627.7 1073.77 2626.28 1061.22 2623.7C1041.45 2619.61 1031.93 2621.68 1030.59 2618.07C1028.3 2611.84 1054.71 2600.02 1053.24 2596.85Z" fill="#46962B"/>
<path d="M1169.09 2639.31C1169.39 2637.21 1199.84 2632.14 1223.08 2648.67C1247.47 2666.02 1254.56 2700.46 1248.85 2703.83C1241.89 2707.95 1209.87 2669.37 1211.2 2667.99C1212.36 2666.79 1239.13 2692.89 1241.65 2690.58C1243.61 2688.81 1232.28 2668.94 1212.5 2655.56C1190.47 2640.64 1168.85 2641.12 1169.09 2639.31Z" fill="#46962B"/>
<path d="M745.744 191.168C758.598 180.766 764.208 163.531 760.007 148.793C754.651 130.048 734.073 117.835 713.439 124.202C717.864 101.313 707.237 78.3964 688.604 69.2024C672.311 61.1335 652.494 64.8661 638.85 78.7258C629.322 59.7613 610.802 48.0971 591.041 48.6735C570.153 49.2773 551.379 63.4389 543.458 84.6264C529.448 78.122 514.056 74.6914 499.257 79.4942C438.65 99.1723 407.304 253.303 462.555 338.849C468.982 348.784 495.057 389.211 530.632 390.007C551.351 390.473 562.852 377.217 610.097 354.246C631.859 343.652 650.239 336.352 662.36 331.823C678.597 340.194 697.822 336.709 710.056 323.425C723.559 308.742 725.758 285.03 714.82 266.943C736.808 268.7 755.892 253.633 760.036 233.57C763.136 218.448 757.47 202.091 745.744 191.168Z" fill="#006B2D"/>
<path d="M679.837 182.084C674.199 199.209 672.226 200.938 673.128 206.153C675.214 218.201 687.364 218.558 696.694 232.033C705.377 244.576 711.043 267.657 699.993 282.779C691.282 294.69 674.115 299.054 657.173 294.279C649.308 294.224 637.779 294.91 624.445 298.67C618.441 300.371 599.329 306.217 579.117 322.519C539.652 354.301 540.977 389.485 524.571 390.007C504.782 390.638 488.32 339.81 475.86 301.332C460.328 253.358 459.849 223.965 460.751 208.595C462.16 184.416 463.88 160.896 480.906 145.005C483.866 142.233 497.566 129.472 513.662 131.75C531.365 134.274 537.256 152.964 546.418 150.302C557.158 147.174 550.787 120.881 566.573 107.9C579.512 97.2786 603.078 99.09 611.901 110.562C621.147 122.555 611.986 142.179 617.99 145.033C624.164 147.969 632.338 126.453 649.675 123.79C665.489 121.375 684.573 135.317 687.448 150.275C688.463 155.819 685.588 164.574 679.837 182.084Z" fill="#46962B"/>
<path d="M650.943 207.635C646.433 222.647 644.854 224.129 645.559 228.713C647.335 239.883 659.823 242.161 664.446 251.355C668.787 260 666.391 275.506 656.496 282.697C636.707 297.078 616.129 280.529 586.897 296.172C567.869 306.354 557.214 326.362 547.63 344.311C532.689 372.387 534.014 388.552 526.375 389.595C511.04 391.708 492.181 328.448 487.305 311.981C474.845 269.99 474.45 244.246 475.183 230.826C476.311 209.666 477.692 189.082 491.336 175.167C493.732 172.752 504.697 161.555 517.608 163.586C531.787 165.809 536.523 182.138 543.88 179.806C552.506 177.061 547.404 154.062 560.033 142.7C570.406 133.396 589.293 134.988 596.397 145.005C603.811 155.517 596.481 172.67 601.274 175.195C606.207 177.775 612.775 158.92 626.7 156.615C639.385 154.501 654.692 166.714 657.004 179.806C657.849 184.636 655.538 192.293 650.943 207.635Z" fill="#95C11F"/>
<path opacity="0.5" d="M526.656 389.65C523.443 372.195 516.367 321.696 540.695 267.767C557.157 231.292 580.751 209.254 594.226 198.441C585.882 202.091 543.795 221.522 523.443 273.009C500.722 330.451 523.189 382.048 526.656 389.65Z" fill="#FAEFDC"/>
<path d="M845.682 2328.15C852.685 2332.42 853.724 2343.64 852.848 2354.86C799.359 2356.74 777.567 2370.71 768.867 2385.74C756.801 2406.59 770.042 2429.36 756.933 2439.92C744.197 2450.19 714.25 2442.81 707.947 2425.76C700.67 2406.05 731.501 2391.11 735.451 2351.81C738.753 2319.03 720.173 2300.8 731.269 2289.05C738.161 2281.77 752.748 2280.9 758.48 2286.92C767.842 2296.75 751.911 2323.12 757.047 2325.99C759.794 2327.54 767.721 2321.87 786.577 2299.38C794.228 2302.68 801.863 2305.97 809.514 2309.27C787.928 2336.1 783.187 2346.17 785.436 2348.64C790.564 2354.22 829.045 2318.01 845.682 2328.15Z" fill="#46962B"/>
<path d="M952.36 2323.98C949.127 2339.05 926.491 2350.26 924.043 2351.47C916.442 2355.24 910.757 2356.18 909.744 2360.1C908.169 2366.1 920.275 2368.76 920.774 2377.35C921.328 2386.9 907.225 2398.92 893.998 2402.82C881.467 2406.52 866.956 2403.72 858.917 2394.83C850.128 2385.12 855.27 2374.99 846.025 2368.35C836.847 2361.76 827.706 2368.82 822.219 2362.97C812.713 2352.84 831.859 2322.66 826.563 2319.52C822.701 2317.22 813.571 2333.85 796.054 2339.56C776.327 2346 751.949 2336.63 748.903 2322.63C746.437 2311.33 758.33 2299.14 755.657 2297.03C752.424 2294.48 738.737 2315.04 720.418 2315.96C707.283 2316.61 698.139 2306.85 695.069 2303.59C693.129 2301.53 679.753 2287.28 684.774 2274.51C688.654 2264.64 699.784 2265.31 702.911 2256.38C706.948 2244.79 690.182 2238.25 691.621 2224.93C693.553 2207.17 726.882 2186.42 744.661 2193.66C758.123 2199.14 760.419 2219.75 764.215 2218.51C767.967 2217.27 761.475 2198.44 770.359 2188.49C782.814 2174.52 823.374 2180.58 831.787 2200.77C836.164 2211.29 829.964 2221.25 835.881 2225.44C842.572 2230.21 852.197 2218.51 869.765 2217.67C892.007 2216.61 906.297 2233.95 908.349 2236.51C915.132 2245.02 923.305 2261.37 917.392 2269.53C914.277 2273.83 908.005 2274.79 903.724 2282.75C902.229 2285.53 901.34 2287.18 901.81 2288.79C903.548 2294.7 920.396 2287.84 934.408 2294.16C945.341 2299.09 954.891 2312.21 952.36 2323.98Z" fill="#006B2D"/>
<path d="M708.705 2212.38C706.951 2212.17 700.345 2222.75 701.735 2233.33C703.356 2245.7 714.383 2246.78 714 2256.39C713.597 2266.34 701.565 2269.37 700.97 2280.11C700.493 2288.72 707.719 2295.37 713.024 2298.22C726.362 2305.34 743.872 2297.07 743.891 2294.79C743.905 2293.01 733.266 2295.41 723.619 2288.23C720.689 2286.05 715.253 2282.01 715.005 2275.83C714.586 2265.64 728.599 2260.81 728.035 2252.11C727.533 2244.39 716.31 2245.42 710.888 2234.1C705.882 2223.67 710.476 2212.6 708.705 2212.38Z" fill="#46962B"/>
<path d="M869.882 2224.23C855.741 2223 846.4 2237.83 835.084 2234.58C821.233 2230.61 821.394 2204.45 818.962 2205.07C816.241 2205.76 812.595 2239.09 826.299 2245.21C836.89 2249.92 848.399 2234.15 868.423 2235.3C880.074 2235.95 888.746 2242 894.174 2246.94C889.549 2237.14 881.856 2225.29 869.882 2224.23Z" fill="#46962B"/>
<path d="M925.76 2340.22C926.179 2337.34 917.641 2334.02 909.786 2333.48C900.764 2332.86 885.472 2335.42 882.006 2343.72C877.841 2353.68 894.168 2363.65 889.235 2373.95C886.279 2380.14 878.186 2381.12 878.531 2383.41C878.975 2386.37 892.766 2387.93 897.614 2381.72C899.92 2378.78 899.558 2374.53 898.86 2366.04C898.123 2357.13 896.663 2356.57 897.599 2353.98C901.199 2344.07 925.078 2344.93 925.76 2340.22Z" fill="#46962B"/>
<path d="M750.822 2420.78C748.23 2418.49 741.716 2412.77 731.71 2413.5C726.893 2413.86 716.904 2416.01 715.17 2421.41C713.045 2428 723.659 2438.06 735.298 2439.14C744.383 2439.98 755.734 2435.48 756.832 2429.99C757.501 2426.68 754.249 2423.81 750.822 2420.78Z" fill="#006B2D"/>
<path d="M753.6 2403.44C753.026 2403.3 755.69 2372.21 774.9 2359.88C786.331 2352.54 799.944 2354.23 800.193 2356.18C800.531 2358.59 780.377 2360.28 766.141 2376.49C754.888 2389.27 753.991 2403.53 753.6 2403.44Z" fill="#006B2D"/>
<path d="M279.255 2756.33C286.909 2757.19 293.865 2751.82 294.794 2744.33C295.722 2736.83 290.27 2730.06 282.617 2729.2C274.963 2728.34 268.007 2733.71 267.079 2741.2C266.15 2748.7 271.602 2755.47 279.255 2756.33Z" fill="#4F294A"/>
<path d="M548.736 2593.84C585.612 2637.15 548.77 2718.38 543.53 2729.59C521.003 2777.62 485.731 2804.13 462.491 2821.57C444.602 2835.01 401.063 2866.94 337.282 2876.77C317.452 2879.82 289.972 2883.74 257.602 2873.48C242.513 2868.7 217.037 2860.59 200.553 2837.51C181.363 2810.65 177.3 2767.67 196.464 2739.34C215.928 2710.56 263.372 2700.11 358.29 2679.17C386.6 2672.93 408.624 2669.26 425.691 2650.41C441.882 2632.5 437.83 2618.34 458.961 2597.35C466.818 2589.55 485.411 2571.09 509.621 2572.54C530.196 2573.77 544.424 2588.79 548.736 2593.84Z" fill="#4F294A"/>
<path d="M560.625 2649.32C557.017 2651.3 552.236 2649.62 546.907 2647.77C533.363 2643.06 531.135 2634.13 525.264 2635.11C517.955 2636.33 519.284 2650.55 507.62 2655.85C506.442 2656.38 499.834 2659.38 494.745 2656.68C484.725 2651.33 491.526 2629.48 484.054 2626.54C477.823 2624.09 470.251 2638.15 460.218 2635.75C453.924 2634.24 451.098 2627.29 450.893 2626.76C447.03 2616.79 455.768 2605.57 461.372 2598.42C465.658 2592.93 474.49 2581.61 489.981 2575.42C498.765 2571.92 504.29 2572.2 506.994 2567.22C510.05 2561.59 505.175 2557.17 505.933 2548.86C507.131 2535.91 521.063 2524.13 525.983 2526.22C532.629 2529.04 517.436 2554.94 530.889 2574.83C537.693 2584.91 544.171 2582.08 553.675 2592.92C570.426 2612.01 570.485 2643.93 560.625 2649.32Z" fill="#006B2D"/>
<path opacity="0.5" d="M397.052 2821.58C390.893 2826.58 339.982 2866.67 282.911 2850.13C254.939 2842.02 211.9 2816.34 214.584 2782.6C216.205 2762.27 233.69 2748.04 241.292 2742.57C247.052 2755.27 260.358 2779.62 287.729 2798.72C334.324 2831.21 385.953 2823.5 397.052 2821.58Z" fill="#FAEFDC"/>
<path d="M562.829 2626.1C562.84 2627.32 562.818 2639.32 556.875 2641.33C552.373 2642.87 546.394 2637.94 543.33 2633.56C538.267 2626.28 541.145 2620.34 539.619 2611.43C536.315 2592.13 516.525 2583.34 518.311 2580.97C519.966 2578.77 537.554 2585.63 550.451 2599.72C554.702 2604.37 562.865 2613.55 562.829 2626.1Z" fill="#46962B"/>
<path d="M511.229 2548.84C509.616 2547.65 512.465 2541.27 514.979 2537.36C516.451 2535.08 520.447 2529.49 522.221 2530.25C523.972 2530.97 523.588 2538.01 520.067 2543.05C517.373 2546.89 512.644 2549.88 511.229 2548.84Z" fill="#46962B"/>
<path d="M290.05 641.888C261.429 713.027 203.36 742.924 170.881 759.635C150.291 770.252 92.3404 799.076 18.0123 788.306C-59.6621 777.075 -168.713 720.654 -170.406 641.849C-171.548 589.99 -125.959 540.89 -88.3226 519.349C-41.9069 492.787 -18.0888 514.136 31.3189 479.908C62.8139 458.099 62.8139 442.729 101.12 418.926C124.426 404.476 149.622 388.838 180.881 390.256C241.154 392.939 278.948 456.872 283.908 465.573C328.238 543.113 294.617 630.542 290.05 641.888Z" fill="#EBBD00"/>
<path d="M102.892 782.058C101.553 783.093 94.2306 770.942 71.7511 745.76C46.9488 717.971 31.8706 705.898 33.1304 704.058C34.4295 702.218 52.2636 711.8 68.0111 726.902C92.5378 750.436 104.9 780.525 102.892 782.058Z" fill="#AC6006"/>
<path d="M109.819 565.536C108.481 566.571 101.158 554.42 78.6788 529.238C53.8765 501.449 38.7983 489.376 40.0581 487.536C41.3573 485.696 59.1912 495.278 74.9387 510.38C99.4654 533.952 111.867 564.003 109.819 565.536Z" fill="#AC6006"/>
<path d="M301.664 587.729C300.325 588.763 293.003 576.613 270.523 551.431C245.721 523.642 230.643 511.568 231.902 509.728C233.202 507.889 251.035 517.471 266.783 532.573C291.31 556.107 303.711 586.195 301.664 587.729Z" fill="#AC6006"/>
<path d="M6.63833 155.096C2.19101 165.725 -13.532 170.097 -29.6874 171.867C-44.7617 99.7861 -69.6786 73.9022 -93.0872 66.0656C-125.538 55.1961 -154.858 79.1712 -172.924 64.1712C-190.481 49.6008 -186.931 7.01868 -164.124 -6.03594C-137.784 -21.1088 -109.385 16.7817 -52.5537 11.7676C-5.1628 7.59782 16.4684 -22.4248 35.7469 -10.4692C47.7123 -3.04038 52.3304 16.5224 45.0859 25.8909C33.2802 41.1874 -7.92752 26.531 -10.8288 34.2585C-12.3882 38.3928 -2.49064 47.6534 33.8789 67.3032C30.9559 78.5558 28.0444 89.7832 25.1215 101.036C-18.0535 78.8292 -33.4748 75.0534 -36.4626 78.7561C-43.2158 87.1875 17.2115 129.845 6.63833 155.096Z" fill="#46962B"/>
<path d="M38.6256 299.129C16.5287 298.72 -4.57947 271.065 -6.84902 268.072C-13.9464 258.787 -16.5959 251.35 -22.378 251.009C-31.2474 250.459 -32.2189 267.524 -44.2782 270.458C-57.6816 273.719 -77.9646 257.812 -86.5483 240.956C-94.6815 224.987 -94.0688 204.633 -83.328 191.428C-71.5938 176.991 -56.0515 181.279 -48.7834 167.036C-41.5614 152.893 -53.6718 142.392 -46.6557 133.436C-34.4874 117.919 12.6836 135.869 15.9184 127.883C18.2851 122.056 -7.38375 114.086 -19.5247 91.9064C-33.1984 66.9288 -25.5518 31.5072 -6.4246 23.7091C9.01773 17.4043 29.0403 30.2762 31.411 26.109C34.2743 21.068 1.98966 7.9683 -3.53493 -16.5569C-7.49815 -34.1425 4.21632 -49.0701 8.13654 -54.0795C10.5979 -57.2433 27.7145 -79.0763 46.9548 -75.6431C61.8404 -72.9934 63.4589 -57.7703 76.8306 -55.8907C94.1824 -53.4789 99.5841 -77.8671 118.787 -79.4235C144.403 -81.483 181.488 -41.8781 175.345 -15.9394C170.682 3.7019 142.008 12.2263 144.639 17.0329C147.268 21.7781 172.453 8.04881 188.59 17.4451C211.264 30.6105 212.041 87.039 185.38 103.721C171.479 112.406 155.94 106.642 151.367 115.742C146.152 126.044 164.951 135.979 170.197 159.51C176.826 189.302 155.556 213.181 152.415 216.626C141.916 228.036 120.642 243.383 107.714 237.534C100.892 234.456 98.0847 226.228 85.8212 222.534C81.5466 221.242 78.9898 220.476 76.8206 221.535C68.847 225.438 82.4599 246.411 76.7424 267.016C72.2752 283.094 55.8933 299.455 38.6256 299.129Z" fill="#006B2D"/>
<path d="M139.175 -59.309C139.065 -61.7405 122.518 -67.9032 107.804 -63.2299C90.6175 -57.7765 91.6336 -42.553 77.8953 -40.5395C63.6687 -38.4639 56.5875 -53.9654 41.1884 -51.9401C28.8565 -50.3192 21.0777 -38.7779 18.2636 -30.841C11.2262 -10.8938 27.0336 10.6446 30.2703 10.0714C32.8071 9.62051 26.9281 -4.15809 34.8964 -19.1188C37.3186 -23.6628 41.7993 -32.092 50.5178 -34.0558C64.8858 -37.3081 75.001 -19.5998 87.2247 -22.6553C98.0652 -25.3686 94.0025 -40.2995 108.828 -50.6287C122.49 -60.1592 139.274 -56.8522 139.175 -59.309Z" fill="#46962B"/>
<path d="M161.809 162.062C160.287 142.641 137.16 133.919 139.147 117.782C141.566 98.0351 178.625 91.3794 177.181 88.2593C175.571 84.7669 127.576 88.5959 122.083 108.711C117.862 124.25 142.817 135.655 145.814 162.999C147.572 178.906 141.014 192.207 135.284 200.833C148.075 192.014 163.074 178.511 161.809 162.062Z" fill="#46962B"/>
<path d="M10.2726 266.493C14.4787 266.301 17.2303 253.801 16.1758 242.967C14.9682 230.524 7.76087 210.391 -4.88133 207.87C-20.0548 204.839 -30.4716 229.696 -46.3143 225.712C-55.8222 223.326 -59.0941 212.57 -62.293 213.648C-66.4007 215.033 -65.4262 234.216 -55.4364 239.17C-50.7111 241.531 -44.7456 239.914 -32.8004 236.718C-20.2564 233.354 -19.7999 231.22 -15.8903 231.808C-0.923875 234.085 3.3968 266.811 10.2726 266.493Z" fill="#46962B"/>
<path d="M651.84 2580.69C669.319 2582.66 685.206 2570.38 687.326 2553.27C689.446 2536.16 676.995 2520.69 659.517 2518.72C642.038 2516.75 626.151 2529.03 624.031 2546.14C621.911 2563.25 634.362 2578.72 651.84 2580.69Z" fill="#592C05"/>
<path d="M647.681 2663.17C658.349 2664.37 668.045 2656.88 669.339 2646.44C670.632 2635.99 663.034 2626.55 652.366 2625.35C641.699 2624.15 632.003 2631.64 630.709 2642.08C629.415 2652.53 637.014 2661.97 647.681 2663.17Z" fill="#592C05"/>
<path d="M715.791 2607.12C721.125 2607.73 725.973 2603.98 726.62 2598.76C727.267 2593.54 723.467 2588.82 718.134 2588.22C712.8 2587.61 707.952 2591.36 707.305 2596.58C706.658 2601.8 710.457 2606.52 715.791 2607.12Z" fill="#592C05"/>
<path d="M482.404 480.221C481.935 498.158 496.471 513.05 514.87 513.484C533.27 513.917 548.566 499.728 549.035 481.79C549.505 463.853 534.969 448.961 516.569 448.527C498.169 448.094 482.873 462.283 482.404 480.221Z" fill="#592C05"/>
<path d="M393.928 483.95C393.641 494.897 402.513 503.986 413.742 504.251C424.972 504.515 434.307 495.855 434.594 484.908C434.88 473.961 426.009 464.872 414.779 464.607C403.549 464.342 394.214 473.003 393.928 483.95Z" fill="#592C05"/>
<path d="M460.289 547.4C460.145 552.873 464.581 557.418 470.196 557.55C475.811 557.682 480.479 553.352 480.622 547.879C480.765 542.405 476.329 537.861 470.714 537.728C465.099 537.596 460.432 541.926 460.289 547.4Z" fill="#592C05"/>
<path d="M329.783 32.3653C340.419 74.8165 368.928 95.2235 365.627 98.8138C361.419 103.409 306.717 79.3927 296.602 37.2019C294.768 29.5749 296.93 31.9188 295.29 3.28942C292.896 -38.213 288.148 -46.6772 295.154 -57.7457C305.636 -74.3207 331.868 -80.0689 336.944 -74.2463C342.368 -67.9958 321.174 -51.2534 326.888 -39.6268C335.805 -21.4707 396.511 -44.0728 410.216 -23.0147C418.709 -9.95567 406.336 15.6416 395.604 16.7763C385.161 17.8925 381.475 -4.74693 361.381 -9.17435C351.266 -11.4067 338.662 -8.65344 332.003 -0.877548C327.968 3.82891 324.687 12.0699 329.783 32.3653Z" fill="#592C05"/>
<path d="M1053.42 2418.3C1062.32 2400.69 1055.94 2381.09 1054.43 2376.47C1046.06 2350.72 1025.44 2345.41 1028.6 2332.86C1030.96 2323.53 1045.01 2316.06 1054.66 2318.8C1071.1 2323.49 1072.91 2357.31 1077.11 2356.79C1081.92 2356.18 1072.85 2312.55 1087.4 2305.54C1097.95 2300.43 1121.2 2314.57 1122.4 2329.23C1123.89 2347.35 1091.39 2361.67 1095.72 2370.73C1098.19 2375.93 1109.14 2371.88 1116.28 2379.66C1122.7 2386.65 1123.3 2400.2 1117.15 2405.98C1108.82 2413.81 1094.5 2401.34 1083 2408.61C1069.84 2416.94 1079.3 2439.24 1066.12 2447.32C1056.27 2453.35 1039.07 2448.21 1037.08 2441.35C1035.34 2435.27 1046.62 2431.77 1053.42 2418.3Z" fill="#592C05"/>
<path d="M864.291 82.7928C857.922 83.253 846.36 118.109 861.768 144.405C876.286 169.203 915.589 187.755 943.963 170.281C971.569 153.267 975.913 110.075 957.874 91.4181C944.233 77.31 916.601 75.9689 911.082 84.0288C906.643 90.524 913.619 107.446 913.605 107.446C913.605 107.446 933.196 106.473 940.158 113.612C949.144 122.816 942.56 151.124 928.784 155.502C912.917 160.538 891.977 132.506 887.052 125.932C869.391 102.305 869.162 82.451 864.291 82.7928Z" fill="#592C05"/>
<path d="M491.131 1407.2C490.676 1396.47 485.057 1387.18 476.928 1379.3C475.946 1385.43 469.653 1410.71 456.141 1421.01C451.213 1424.75 446.084 1428.45 438.373 1429.62C421.497 1432.1 410.185 1431.79 392.036 1424.92C383.652 1421.73 373.85 1413.03 359.846 1411.14C348.28 1409.5 311.526 1420.87 311.526 1420.87C311.526 1420.87 340.624 1390.18 372.795 1398.34C385.406 1401.5 398.208 1403.94 411.131 1405.63C412.243 1405.8 413.37 1405.86 414.495 1405.82C439.81 1404.66 451.886 1380.61 451.267 1361.73C438.605 1355.17 425.234 1349.92 411.385 1346.06C404.966 1344.08 332.44 1322.71 272.844 1364.62C261.478 1372.63 242.747 1386.22 240.11 1407.95C237.891 1425.86 247.693 1440.31 251.458 1445.69C274.208 1478.27 313.69 1484.14 343.697 1486.42C369.867 1488.41 416.568 1489.86 453.068 1469.35C464.288 1463.01 492.368 1437.39 491.131 1407.2Z" fill="#AC6006"/>
<path d="M362.702 1406.11C362.702 1406.11 373.886 1404.85 380.578 1406.21C386.963 1407.38 393.276 1408.87 399.492 1410.68C403.914 1412.26 408.586 1413.14 413.313 1413.28C423.297 1413.6 434.609 1409.54 445.357 1401.01C456.687 1392.04 458.433 1377.27 459.051 1367.91C459.488 1361.18 456.36 1346.28 452.631 1340.36C449.47 1335.22 445.26 1330.73 440.247 1327.15C435.61 1323.84 430.646 1320.95 425.425 1318.54C418.82 1315.15 411.935 1312.27 404.839 1309.93C398.356 1307.68 391.655 1306.05 384.834 1305.05C376.328 1303.97 367.72 1303.8 359.174 1304.55C350.835 1304.93 342.531 1305.81 334.313 1307.21C318.236 1309.88 302.684 1314.85 288.194 1321.97C266.061 1333.04 255.822 1345.65 254.877 1344.66C253.695 1343.37 269.28 1322.71 294.322 1308.57C302.945 1303.76 312.147 1299.95 321.729 1297.22C332.633 1294.11 343.919 1292.38 355.3 1292.05C371.734 1291.07 388.227 1292.7 404.093 1296.87C416.205 1300.06 429.444 1303.54 443.193 1314.1C450.685 1319.81 460.579 1327.36 466.053 1341.1C474 1361.06 471.09 1386.2 463.143 1400.15C461.149 1404.05 458.564 1407.66 455.468 1410.85C451.446 1414.75 446.754 1417.97 441.592 1420.39C438.737 1421.89 432.499 1423.35 426.171 1424.45C417.603 1425.08 409.012 1423.55 401.274 1420.01C385.998 1412.85 382.506 1411.74 382.506 1411.74C376.071 1409.38 369.449 1407.49 362.702 1406.11Z" fill="#46962B"/>
<path d="M248.076 1342.67C247.499 1336.23 245.988 1329.9 243.584 1323.86C236.801 1309.08 230.254 1306.17 228.654 1305.48C226.617 1304.66 223.198 1303.3 220.706 1304.78C216.123 1307.4 216.778 1317.52 219.524 1324.19C222.091 1329.84 226.502 1334.56 232.109 1337.66C234.018 1338.93 248.076 1342.67 248.076 1342.67Z" fill="#46962B"/>
<path d="M248.931 1350.49C248.931 1350.49 233.4 1351.09 221.961 1355.65C200.592 1364.16 195.937 1373.05 194.918 1375.22C193.609 1377.97 191.445 1382.52 193.354 1386.13C196.755 1392.61 211.158 1392.28 220.815 1388.84C231.472 1385.05 237.182 1377.16 240.82 1372.24C242.675 1369.65 248.931 1350.49 248.931 1350.49Z" fill="#46962B"/>
<path d="M557.134 1444.06L541.598 1443.36L539.127 1329.14L555.898 1328.25L598.267 1408.4L597.031 1326.31L614.332 1327.55L611.331 1444.42L600.562 1444.06L553.426 1358.27L557.134 1444.06ZM707.247 1326.31L708.836 1374.15C708.836 1400.16 704.834 1418.52 696.831 1429.23C693.654 1433.47 689.358 1436.88 683.944 1439.47C678.648 1442.06 672.881 1443.36 666.643 1443.36C660.523 1443.36 655.522 1442.42 651.638 1440.53C647.754 1438.65 644.576 1435.77 642.105 1431.88C639.633 1428 637.574 1423.88 635.926 1419.52C634.278 1415.05 633.042 1409.58 632.219 1403.11C631.042 1392.63 630.453 1379.92 630.453 1364.97V1329.14L646.695 1327.19C646.459 1341.08 646.342 1352.5 646.342 1361.44C646.342 1370.39 646.577 1378.69 647.048 1386.34C647.636 1393.99 648.695 1401.22 650.225 1408.05C653.285 1421.47 659.347 1428.17 668.409 1428.17C676.647 1428.17 682.767 1423.53 686.769 1414.23C690.77 1404.81 692.771 1390.16 692.771 1370.27C692.771 1358.5 692.124 1344.32 690.829 1327.72L707.247 1326.31ZM718.089 1328.08L794.883 1328.78L793.471 1342.02L763.636 1342.2L765.048 1442.3L748.1 1442.12L748.453 1342.2L718.442 1342.38L718.089 1328.08ZM828.422 1327.37C842.781 1327.37 853.549 1330.67 860.729 1337.26C867.908 1343.85 871.497 1351.79 871.497 1361.09C871.497 1375.1 864.377 1385.86 850.136 1393.4L874.146 1439.12L858.434 1444.77L836.366 1396.93L820.302 1396.75L821.537 1441.77L806.355 1442.83L804.413 1330.02C817.006 1328.25 825.009 1327.37 828.422 1327.37ZM818.183 1341.49V1383.33C820.537 1383.57 823.538 1383.69 827.187 1383.69C834.248 1383.69 841.074 1381.75 847.665 1377.86C854.256 1373.86 857.551 1368.5 857.551 1361.8C857.551 1355.09 855.021 1349.67 849.96 1345.55C845.017 1341.44 839.485 1339.38 833.365 1339.38C827.245 1339.38 822.185 1340.08 818.183 1341.49ZM886.365 1328.08L903.666 1327.19L901.724 1441.77L887.424 1442.3L886.365 1328.08ZM944.447 1327.37C958.806 1327.37 969.575 1330.67 976.754 1337.26C983.933 1343.85 987.523 1351.79 987.523 1361.09C987.523 1375.1 980.402 1385.86 966.162 1393.4L990.171 1439.12L974.459 1444.77L952.392 1396.93L936.327 1396.75L937.563 1441.77L922.38 1442.83L920.438 1330.02C933.031 1328.25 941.034 1327.37 944.447 1327.37ZM934.208 1341.49V1383.33C936.562 1383.57 939.563 1383.69 943.212 1383.69C950.273 1383.69 957.099 1381.75 963.69 1377.86C970.281 1373.86 973.576 1368.5 973.576 1361.8C973.576 1355.09 971.046 1349.67 965.985 1345.55C961.042 1341.44 955.511 1339.38 949.391 1339.38C943.271 1339.38 938.21 1340.08 934.208 1341.49ZM999.742 1329.31L1053.23 1326.49L1053.94 1342.2L1015.45 1342.02L1016.16 1375.92L1047.05 1375.39L1046.88 1390.93L1016.69 1390.22V1427.82L1054.82 1426.76V1442.83L1001.86 1442.12L999.742 1329.31Z" fill="#592C05"/>
</g>
<defs>
<clipPath id="clip0_60_26">
<rect width="1284" height="2778" fill="white"/>
</clipPath>
</defs>
</svg>
