<svg width="250" height="268" viewBox="0 0 250 268" fill="none" xmlns="http://www.w3.org/2000/svg">
<path d="M89.4021 238.421C67.8644 232.063 52.2936 215.188 46.6442 195.064C42.7073 181.061 37.2968 167.545 30.9285 154.467C25.5419 143.414 24.1022 130.382 27.8609 117.649C30.4091 109.017 35.0302 101.575 41.039 95.685C50.6873 86.2081 58.3362 74.921 63.8697 62.5871C73.4283 41.2278 94.6324 14.3285 137.837 27.0825C153.102 31.5887 165.647 40.7507 173.874 52.9391C180.839 63.2537 189.169 72.5479 198.246 81.0614C219.423 100.936 228.883 131.726 220.1 161.479C212.957 185.678 195.301 203.896 173.59 212.643C163.385 216.747 153.625 221.937 144.806 228.499C129.482 239.93 109.141 244.248 89.4021 238.421Z" fill="#006B2D"/>
<path d="M134.111 30.8673C135.798 30.1812 137.99 31.4639 139.932 33.0858C133.368 42.8326 133.113 48.5293 134.746 52.0408C137.009 56.9094 142.894 57.5345 143.137 61.2442C143.374 64.8486 138.154 69.2038 134.212 68.0929C129.66 66.8094 130.904 59.3798 124.208 53.5389C118.626 48.667 112.884 49.5833 112.164 46.077C111.718 43.8998 113.443 41.1951 115.288 40.9649C118.299 40.5865 121.075 46.8642 122.266 46.3281C122.904 46.042 122.889 43.8932 121.201 37.6028C122.794 36.6754 124.384 35.7496 125.977 34.8223C128.108 42.1647 129.342 44.3232 130.084 44.2462C131.77 44.0653 130.103 32.4961 134.111 30.8673Z" fill="#95C11F"/>
<path d="M147.077 11.2982C149.418 13.8389 148.55 19.3172 148.454 19.9084C148.164 21.7489 147.604 22.8803 148.19 23.5713C149.086 24.6343 151.134 22.8341 152.771 23.8674C154.59 25.0158 154.971 29.0862 153.979 31.9417C153.04 34.6471 150.656 36.8559 147.992 37.1211C145.08 37.4118 143.889 35.1771 141.482 35.9505C139.091 36.7178 139.204 39.2605 137.426 39.4706C134.345 39.8332 131.291 32.4983 130.032 33.0269C129.113 33.4117 130.979 37.2019 129.766 41.055C128.399 45.3942 123.54 48.495 120.585 47.2081C118.199 46.1701 117.501 42.4689 116.77 42.6676C115.886 42.9084 117.884 48.0197 115.688 51.3882C114.114 53.8037 111.149 54.1517 110.155 54.2697C109.528 54.3458 105.193 54.8567 103.505 52.3001C102.198 50.3228 103.756 48.4364 102.525 46.7163C100.925 44.4872 97.5642 46.6067 95.312 44.6127C92.3093 41.9509 92.8114 33.3314 96.4287 31.1221C99.1689 29.4505 103.238 31.734 103.501 30.8989C103.757 30.071 99.4725 28.764 98.7985 25.8904C97.8474 21.8569 104.188 15.454 108.969 16.5973C111.46 17.195 112.483 19.5945 114.013 19.0923C115.75 18.5282 114.849 15.2939 116.962 12.0681C119.638 7.98549 124.655 7.71455 125.387 7.68371C127.82 7.59217 131.867 8.27659 132.598 10.3909C132.984 11.5057 132.351 12.7434 133.255 14.5416C133.57 15.1687 133.759 15.5431 134.114 15.6695C135.42 16.133 136.337 12.2489 139.301 10.5884C141.615 9.29339 145.248 9.31202 147.077 11.2982Z" fill="#95C11F"/>
<path d="M95.2939 39.9789C95.0293 40.2631 96.1139 42.8175 98.2329 43.9539C100.708 45.2819 102.329 43.4657 104.04 44.7895C105.812 46.1613 104.813 48.6924 106.705 50.2021C108.219 51.4112 110.371 50.9981 111.578 50.4282C114.605 48.9919 115.349 44.8022 114.935 44.5014C114.61 44.2658 113.677 46.4688 111.116 47.2427C110.338 47.4776 108.896 47.9146 107.732 47.1512C105.812 45.8949 106.734 42.7751 105.068 41.7386C103.589 40.8197 102.33 42.9467 99.5555 42.4299C96.9976 41.955 95.5626 39.6931 95.2939 39.9789Z" fill="#95C11F"/>
<path d="M118.165 12.8358C116.117 15.1827 117.625 18.773 115.572 20.3555C113.06 22.2935 108.293 18.8506 108.094 19.3632C107.87 19.9362 113.498 24.9316 116.384 23.2998C118.611 22.0367 117.211 17.9393 120.002 14.5387C121.624 12.5587 123.849 11.8103 125.451 11.4919C123.063 11.0339 119.902 10.8509 118.165 12.8358Z" fill="#95C11F"/>
<path d="M146.543 18.1537C146.068 17.7021 144.355 18.7858 143.239 20.1119C141.958 21.6346 140.451 24.6891 141.526 26.3918C142.816 28.4362 146.756 26.8372 148.009 29.0631C148.762 30.3983 147.894 31.9652 148.361 32.2048C148.96 32.5124 151.031 30.2647 150.517 28.5891C150.276 27.7945 149.451 27.3038 147.803 26.3166C146.071 25.2807 145.78 25.4673 145.426 24.962C144.073 23.025 147.319 18.8916 146.543 18.1537Z" fill="#95C11F"/>
<path d="M138.831 59.8934C138.077 60.054 136.19 60.4631 135.032 62.333C134.476 63.234 133.582 65.2873 134.347 66.3002C135.278 67.537 138.49 66.9678 140.189 65.0438C141.515 63.5419 142.156 60.9414 141.293 60.03C140.772 59.4785 139.828 59.681 138.831 59.8934Z" fill="#95C11F"/>
<path d="M136.003 57.0833C135.903 57.1668 130.539 52.6212 130.762 47.586C130.893 44.589 132.966 42.387 133.357 42.5984C133.844 42.854 131.544 46.6628 132.678 51.3205C133.568 54.9978 136.071 57.0257 136.003 57.0833Z" fill="#95C11F"/>
<path d="M60.4614 113.082C62.9287 113.082 64.9287 111.082 64.9287 108.615C64.9287 106.148 62.9287 104.148 60.4614 104.148C57.9942 104.148 55.9941 106.148 55.9941 108.615C55.9941 111.082 57.9942 113.082 60.4614 113.082Z" fill="#95C11F"/>
<path d="M61.2683 124.912C62.775 124.912 63.9965 123.69 63.9965 122.183C63.9965 120.677 62.775 119.455 61.2683 119.455C59.7615 119.455 58.54 120.677 58.54 122.183C58.54 123.69 59.7615 124.912 61.2683 124.912Z" fill="#95C11F"/>
<path d="M69.7732 115.807C70.5255 115.807 71.1353 115.197 71.1353 114.445C71.1353 113.692 70.5255 113.082 69.7732 113.082C69.021 113.082 68.4111 113.692 68.4111 114.445C68.4111 115.197 69.021 115.807 69.7732 115.807Z" fill="#95C11F"/>
<path d="M98.5298 114.61C98.7167 112.807 98.9035 111.005 99.0904 109.203C99.5921 112.382 100.339 115.877 101.452 119.596C103.698 127.123 106.747 133.281 109.581 138.003C109.114 138.367 108.647 138.732 108.18 139.097C105.984 135.826 103.489 131.431 101.483 125.941C99.9406 121.727 99.0546 117.858 98.5298 114.61Z" fill="#95C11F"/>
<path d="M107.584 121.157C108.552 119.625 109.523 118.094 110.488 116.564C109.527 119.634 108.641 123.1 107.981 126.923C106.647 134.664 106.639 141.536 107.077 147.026C106.498 147.144 105.914 147.263 105.335 147.381C104.824 143.475 104.543 138.429 105.187 132.619C105.683 128.158 106.608 124.298 107.584 121.157Z" fill="#95C11F"/>
<path d="M124.917 142.41C126.859 147.525 129.578 157.194 127.594 170.434C115.518 165.096 108.58 157.945 105.036 153.591C101.048 148.698 96.2136 142.763 97.9276 136.55C99.233 131.804 103.77 129.034 104.174 128.795C105.285 128.138 108.865 126.218 112.635 126.863C119.457 128.03 122.823 136.901 124.917 142.41Z" fill="#95C11F"/>
<path d="M114.881 120.785C115.005 121.53 114.273 122.48 113.008 122.815C111.997 122.228 111.053 121.718 110.985 121.815C110.892 121.953 112.664 122.923 112.492 123.575C112.298 124.319 109.538 124.846 107.686 123.591C105.804 122.316 105.288 119.49 105.939 119.01C106.503 118.594 108.106 119.807 108.193 119.665C108.273 119.53 106.651 118.846 106.433 117.592C106.309 116.875 106.629 115.922 107.329 115.647C107.935 115.408 108.633 115.758 109.015 116.105C109.776 116.797 109.758 117.899 109.936 117.884C110.129 117.868 109.946 116.781 110.504 116.055C111.026 115.38 112.014 115.252 112.822 115.262C113.184 116.16 113.438 117.277 112.94 118.166C112.486 118.975 111.537 119.36 111.631 119.554C111.721 119.747 112.574 119.252 113.54 119.55C114.075 119.711 114.781 120.155 114.881 120.785Z" fill="#95C11F"/>
<path d="M113.099 101.947C114.08 103.322 112.701 106.579 109.443 109.689C106.477 109.682 103.753 109.754 103.733 110.061C103.703 110.48 108.828 110.359 109.28 112.008C109.796 113.883 104.407 118.55 98.7461 118.146C92.9949 117.734 88.2651 112.187 89.0911 110.301C89.8023 108.674 94.8648 109.301 94.8693 108.88C94.8766 108.462 90.5686 108.904 88.3705 106.56C86.7535 104.832 86.784 102.13 87.1059 100.021C88.4844 99.6241 90.3107 99.3597 92.1544 100.014C94.649 100.898 96.0234 103.049 96.4387 102.749C96.8708 102.44 95.0946 100.364 95.362 98.0169C95.6079 95.8699 97.4714 94.302 99.0591 93.2977C101.212 94.845 103.329 96.9679 103.395 99.5622C103.454 101.921 101.796 103.907 102.285 104.276C102.733 104.616 104.016 102.846 106.475 101.842C108.74 100.914 112.131 100.591 113.099 101.947Z" fill="#95C11F"/>
<path opacity="0.5" d="M122.664 137.129C121.609 138.205 120.282 139.385 118.649 140.515C115.725 142.544 112.901 143.663 110.776 144.306C112.015 142.787 114.242 140.481 117.685 138.802C119.545 137.891 121.277 137.404 122.664 137.129Z" fill="#95C11F"/>
<path d="M98.9801 101.332C99.2597 102.095 99.6287 103.272 99.838 104.74C100.15 106.951 99.9279 108.572 99.826 109.709C99.669 111.525 99.6554 114.195 100.399 117.683C98.2421 114.07 98.1122 111.493 98.4262 109.774C98.5945 108.866 98.9 108.11 99.0975 106.565C99.3783 104.386 99.1877 102.554 98.9801 101.332Z" fill="#95C11F"/>
<path d="M111.331 118.239C111.23 118.533 111.051 118.97 110.758 119.451C110.314 120.18 109.856 120.602 109.55 120.916C109.064 121.413 108.413 122.198 107.784 123.406C108.025 121.818 108.609 121.025 109.119 120.594C109.389 120.367 109.665 120.219 110.096 119.812C110.706 119.234 111.095 118.65 111.331 118.239Z" fill="#95C11F"/>
<path opacity="0.5" d="M120.613 150.321C119.559 151.396 118.231 152.577 116.599 153.706C113.674 155.736 110.851 156.854 108.726 157.498C109.964 155.979 112.191 153.673 115.634 151.994C117.492 151.085 119.221 150.596 120.613 150.321Z" fill="#95C11F"/>
<path d="M82.7232 72.9363C84.0355 78.3723 87.5555 80.9867 87.1488 81.4471C86.6295 82.0355 79.8786 78.9606 78.6302 73.5579C78.4051 72.5807 78.6712 72.8825 78.4691 69.2142C78.1749 63.8984 77.5891 62.8163 78.4512 61.3966C79.743 59.2733 82.9816 58.5366 83.6083 59.2836C84.2786 60.0843 81.6616 62.228 82.3676 63.7168C83.4702 66.0421 90.9604 63.1489 92.6513 65.8452C93.7001 67.5182 92.1729 70.7951 90.8478 70.9409C89.5585 71.0842 89.1032 68.1858 86.6243 67.6179C85.376 67.3314 83.8207 67.6844 82.9995 68.6796C82.5007 69.2807 82.0965 70.3372 82.7232 72.9363Z" fill="#95C11F"/>
<path d="M65.419 152.995C65.8585 159.409 62.9615 164.173 61.6465 166.035C57.3543 172.106 51.0652 173.896 47.2167 174.993C43.6272 176.014 38.2014 177.559 31.8154 175.406C30.0552 174.813 23.5748 172.514 19.9326 165.67C19.2135 164.316 15.9013 157.71 18.5364 150.542C19.0239 149.215 20.27 145.967 23.621 143.483C24.4342 142.882 28.8308 139.625 33.438 140.748C36.1266 141.404 37.1078 143.121 39.2568 142.654C40.7995 142.319 41.09 141.262 42.7282 139.923C45.6982 137.493 49.9198 136.728 53.2908 137.334C56.8575 137.977 59.1536 140.094 60.224 141.111C64.8145 145.457 65.2979 151.244 65.419 152.995Z" fill="#95C11F"/>
<path d="M38.7283 147.384C36.0185 146.903 34.0573 149.419 33.0992 148.673C32.1182 147.903 34.0074 145.143 32.963 143.984C31.4888 142.346 26.2004 146.218 24.765 144.735C23.699 143.631 24.9134 139.736 27.4869 137.968C30.175 136.122 34.7264 136.35 34.6861 136.353C34.6861 136.353 26.9346 135.542 26.8211 134.217C26.692 132.704 36.4166 129.252 38.9759 132.24C40.4366 133.947 39.0538 137.164 40.0025 137.522C41.1079 137.939 42.5232 133.419 45.886 132.709C49.2613 131.999 52.9692 135.471 52.6535 136.304C52.3888 136.996 49.4846 135.551 46.7838 137.173C45.3751 138.019 43.981 139.731 44.3839 140.822C44.9621 142.379 48.5749 140.969 51.5258 143.04C54.9722 145.455 55.3997 151.13 54.4844 151.587C53.7895 151.933 52.6595 149.12 48.9671 147.272C46.0646 145.818 42.8453 145.594 42.5407 146.306C42.1203 147.296 40.4191 147.684 38.7283 147.384Z" fill="#95C11F"/>
<path opacity="0.5" d="M28.3297 164.154C32.6943 171.106 41.4589 172.093 41.0999 173.289C40.8106 174.248 34.9819 174.273 30.0063 171.443C28.9392 170.838 22.9503 167.433 21.8641 160.68C20.8915 154.646 24.3057 148.84 25.534 149.062C26.9501 149.323 24.0234 157.293 28.3297 164.154Z" fill="#95C11F"/>
<path opacity="0.5" d="M58.0656 164.415C61.1466 159.691 59.8954 154.476 60.7012 154.425C61.3619 154.385 62.6786 157.838 61.9391 161.16C61.3969 163.607 59.8894 165.296 59.19 166.084C58.7879 166.534 57.9709 167.388 56.7439 168.221C54.4005 169.809 51.5621 170.641 51.358 170.249C51.1102 169.774 55.4104 168.493 58.0656 164.415Z" fill="#95C11F"/>
<path d="M31.2257 138.31C31.0637 137.981 28.2381 138.43 26.8036 140.47C26.7062 140.608 25.6288 142.17 26.1568 142.896C26.3649 143.184 26.8198 143.338 29.8702 142.941C32.3918 142.614 33.0243 142.384 33.6651 142.791C34.1609 143.106 34.6966 143.83 34.7304 145.667C34.9107 145.279 35.689 143.517 34.8927 142.448C34.4581 141.865 33.7097 141.723 32.2379 141.47C29.9212 141.068 28.8183 141.355 28.6509 140.932C28.3645 140.2 31.4071 138.68 31.2257 138.31Z" fill="#95C11F"/>
<path d="M44.8203 142.983C44.8492 142.732 48.3867 141.998 51.1491 143.865C54.0488 145.827 54.9814 149.898 54.3253 150.324C53.5263 150.844 49.6716 146.387 49.8221 146.217C49.954 146.069 53.1578 149.063 53.4449 148.777C53.6683 148.558 52.2847 146.24 49.9355 144.731C47.3196 143.049 44.7981 143.199 44.8203 142.983Z" fill="#95C11F"/>
<path d="M122.24 101.27C121.43 101.329 119.963 105.875 121.918 109.302C123.762 112.535 128.756 114.955 132.36 112.676C135.866 110.458 136.418 104.828 134.127 102.396C132.395 100.557 128.883 100.382 128.183 101.432C127.618 102.278 128.505 104.483 128.505 104.483C128.505 104.483 130.994 104.356 131.879 105.286C133.02 106.486 132.185 110.177 130.434 110.747C128.419 111.404 125.759 107.751 125.133 106.891C122.889 103.813 122.858 101.224 122.24 101.27Z" fill="#95C11F"/>
</svg>
