<svg width="412" height="175" viewBox="0 0 412 175" fill="none" xmlns="http://www.w3.org/2000/svg">
<path d="M240.905 237.025C240.905 237.025 274.456 227.932 332.714 236.684C390.971 245.435 461.472 230.6 463.481 167.884C465.489 105.167 417.011 19.1199 295.166 75.5786C173.322 132.037 162.924 49.1887 75.6037 50.6345C-11.7166 52.0802 -81.5241 198.028 43.9189 260.156C91.0203 283.499 127.935 274.394 240.905 237.025Z" fill="#C5D984"/>
<path d="M376.304 52.3841C377.261 48.8825 378.218 45.3809 379.175 41.8793C379.13 48.3272 379.467 55.4801 380.454 63.1939C382.439 78.806 386.46 91.9754 390.522 102.234C389.48 102.802 388.438 103.37 387.396 103.939C384.122 96.7583 380.623 87.2556 378.446 75.7478C376.772 66.9141 376.282 58.9762 376.304 52.3841Z" fill="#AECC53"/>
<path d="M392.069 68.2806C394.482 65.5665 396.899 62.8578 399.307 60.1485C396.406 65.9035 393.524 72.467 390.973 79.8095C385.812 94.6755 383.554 108.259 382.63 119.255C381.447 119.3 380.254 119.344 379.071 119.389C379.335 111.501 380.425 101.434 383.592 90.1574C386.028 81.5003 389.115 74.1708 392.069 68.2806Z" fill="#AECC53"/>
<path d="M419.4 115.947C421.571 126.692 423.795 146.692 415.554 172.221C393.423 157.73 382.039 141.329 376.453 131.568C370.165 120.594 362.543 107.285 367.957 95.5607C372.086 86.6047 381.957 82.6088 382.834 82.2667C385.245 81.3312 392.948 78.7028 400.191 81.2071C413.296 85.7389 417.059 104.374 419.4 115.947Z" fill="#AECC53"/>
<path d="M406.615 69.9243C406.616 71.4372 404.858 73.0769 402.249 73.3272C400.442 71.8363 398.743 70.5198 398.575 70.6898C398.348 70.9333 401.533 73.4274 400.982 74.6607C400.356 76.0689 394.726 76.2105 391.475 73.1252C388.17 69.991 388.071 64.2358 389.516 63.4996C390.766 62.8604 393.54 65.7825 393.758 65.5282C393.96 65.2885 390.977 63.4082 390.954 60.8565C390.944 59.3994 391.886 57.6195 393.36 57.3039C394.637 57.029 395.902 57.9495 396.544 58.7603C397.823 60.3767 397.427 62.5484 397.783 62.5774C398.17 62.6081 398.164 60.3998 399.503 59.1469C400.755 57.9814 402.75 58.0512 404.345 58.3349C404.766 60.2278 404.906 62.5199 403.631 64.1135C402.47 65.565 400.468 66.0162 400.589 66.4315C400.706 66.8414 402.552 66.1418 404.365 67.0452C405.371 67.538 406.621 68.6468 406.615 69.9243Z" fill="#AECC53"/>
<path d="M409.235 32.1028C410.725 35.141 406.937 41.1301 399.482 46.2148C393.62 45.2351 388.212 44.4889 388.072 45.0898C387.876 45.9074 398.048 47.34 398.404 50.7475C398.812 54.6229 386.636 62.09 375.578 59.4451C364.343 56.7551 356.801 44.2479 359.049 40.789C360.986 37.8044 370.789 40.6946 370.935 39.8642C371.086 39.039 362.426 38.5092 358.845 33.1576C356.211 29.2156 357.153 23.8834 358.477 19.8186C361.331 19.4841 365.028 19.557 368.46 21.4508C373.103 24.0118 375.118 28.7133 376.037 28.2559C376.992 27.7851 374.158 23.1016 375.452 18.5496C376.638 14.3855 380.833 11.8935 384.3 10.426C388.051 14.1869 391.544 19.074 390.827 24.2238C390.176 28.9069 386.25 32.2923 387.098 33.1804C387.872 33.9983 390.984 30.9174 396.173 29.7353C400.954 28.6389 407.763 29.1065 409.235 32.1028Z" fill="#AECC53"/>
<path opacity="0.5" d="M416.67 104.772C414.234 106.555 411.226 108.456 407.629 110.156C401.186 113.214 395.24 114.505 390.829 115.084C393.773 112.485 398.928 108.653 406.282 106.456C410.255 105.261 413.838 104.863 416.67 104.772Z" fill="#AECC53"/>
<path d="M381.523 26.2819C381.827 27.8825 382.173 30.3285 382.107 33.2997C382.004 37.7716 381.035 40.9046 380.463 43.1181C379.561 46.6583 378.663 51.9315 378.996 59.0688C375.91 51.2236 376.494 46.0871 377.675 42.7916C378.304 41.0513 379.154 39.655 380.048 36.6663C381.314 32.4502 381.535 28.7666 381.523 26.2819Z" fill="#AECC53"/>
<path d="M400.425 63.7344C400.131 64.281 399.633 65.0878 398.898 65.9434C397.782 67.2387 396.738 67.9247 396.031 68.4443C394.909 69.2692 393.366 70.6085 391.728 72.7911C392.723 69.7311 394.135 68.3542 395.285 67.6689C395.892 67.3074 396.485 67.1037 397.471 66.4403C398.865 65.497 399.824 64.4693 400.425 63.7344Z" fill="#AECC53"/>
<path opacity="0.5" d="M408.313 130.182C405.877 131.965 402.869 133.865 399.272 135.566C392.829 138.624 386.883 139.914 382.472 140.494C385.416 137.895 390.571 134.063 397.925 131.866C401.893 130.675 405.471 130.272 408.313 130.182Z" fill="#AECC53"/>
<path d="M180.418 170.836C182.469 171.078 184.328 169.612 184.57 167.561C184.812 165.511 183.346 163.652 181.296 163.409C179.245 163.167 177.386 164.633 177.144 166.684C176.901 168.735 178.367 170.593 180.418 170.836Z" fill="#AECC53"/>
<path d="M252.411 126.481C262.324 138.366 252.525 160.575 251.131 163.638C245.139 176.768 235.715 183.999 229.506 188.753C224.726 192.418 213.093 201.125 196.02 203.766C190.712 204.585 183.356 205.635 174.678 202.799C170.633 201.478 163.804 199.24 159.37 192.908C154.208 185.539 153.084 173.769 158.192 166.029C163.381 158.167 176.078 155.343 201.48 149.688C209.057 148.003 214.952 147.014 219.507 141.868C223.828 136.978 222.731 133.098 228.372 127.369C230.47 125.24 235.433 120.201 241.918 120.618C247.43 120.971 251.252 125.094 252.411 126.481Z" fill="#AECC53"/>
<path d="M255.676 141.483C254.71 142.023 253.428 141.559 251.998 141.048C248.365 139.747 247.761 137.298 246.188 137.563C244.231 137.892 244.599 141.787 241.478 143.228C241.163 143.373 239.395 144.189 238.029 143.446C235.339 141.972 237.143 135.993 235.139 135.182C233.467 134.505 231.45 138.351 228.759 137.684C227.071 137.267 226.308 135.359 226.253 135.215C225.209 132.482 227.541 129.414 229.037 127.461C230.181 125.961 232.538 122.867 236.684 121.184C239.035 120.233 240.515 120.314 241.236 118.953C242.05 117.413 240.74 116.198 240.936 113.924C241.246 110.377 244.969 107.161 246.289 107.739C248.073 108.516 244.023 115.597 247.645 121.055C249.477 123.822 251.21 123.053 253.766 126.03C258.27 131.272 258.313 140.014 255.676 141.483Z" fill="#AECC53"/>
<path opacity="0.5" d="M211.932 188.806C210.289 190.167 196.7 201.085 181.417 196.517C173.926 194.279 162.389 187.225 163.079 178.003C163.496 172.448 168.162 168.573 170.191 167.083C171.743 170.559 175.324 177.226 182.663 182.469C195.157 191.388 208.964 189.32 211.932 188.806Z" fill="#AECC53"/>
<path d="M256.21 135.113C256.214 135.448 256.218 138.734 254.627 139.28C253.422 139.697 251.816 138.345 250.991 137.142C249.629 135.143 250.395 133.518 249.978 131.077C249.077 125.788 243.767 123.366 244.243 122.717C244.685 122.115 249.403 124.01 252.871 127.879C254.014 129.156 256.209 131.675 256.21 135.113Z" fill="#AECC53"/>
<path d="M242.393 113.893C241.959 113.565 242.719 111.816 243.39 110.747C243.783 110.125 244.851 108.594 245.328 108.803C245.798 109.004 245.701 110.933 244.761 112.312C244.041 113.361 242.774 114.178 242.393 113.893Z" fill="#AECC53"/>
<path d="M308.135 131.962C312.818 132.516 317.064 129.168 317.617 124.484C318.171 119.801 314.823 115.555 310.139 115.002C305.456 114.449 301.211 117.797 300.657 122.48C300.104 127.163 303.452 131.409 308.135 131.962Z" fill="#AECC53"/>
<path d="M307.014 154.608C309.873 154.946 312.464 152.903 312.801 150.045C313.139 147.186 311.096 144.595 308.237 144.258C305.379 143.92 302.788 145.963 302.45 148.821C302.113 151.68 304.156 154.271 307.014 154.608Z" fill="#AECC53"/>
<path d="M325.207 139.234C326.636 139.403 327.931 138.381 328.1 136.952C328.269 135.523 327.247 134.228 325.818 134.059C324.389 133.89 323.094 134.912 322.925 136.341C322.756 137.77 323.777 139.065 325.207 139.234Z" fill="#AECC53"/>
<path d="M182.31 99.1613C184.686 94.3268 182.982 88.949 182.58 87.6804C180.343 80.6131 174.832 79.1551 175.677 75.7096C176.308 73.1502 180.061 71.0992 182.64 71.8531C187.032 73.1397 187.517 82.4203 188.639 82.278C189.925 82.1117 187.501 70.1381 191.387 68.2119C194.209 66.8097 200.419 70.6921 200.741 74.716C201.14 79.6866 192.455 83.6186 193.611 86.1058C194.271 87.5313 197.198 86.4206 199.106 88.5561C200.82 90.4726 200.981 94.194 199.339 95.7792C197.113 97.9277 193.285 94.5055 190.214 96.5019C186.697 98.7857 189.225 104.906 185.703 107.124C183.071 108.78 178.474 107.369 177.943 105.487C177.478 103.819 180.493 102.858 182.31 99.1613Z" fill="#AECC53"/>
<path d="M47.6183 71.0184C49.4975 72.1976 49.7899 75.2773 49.5696 78.3523C35.2607 78.8028 29.4477 82.6069 27.139 86.7213C23.9374 92.4248 27.509 98.6868 24.0149 101.569C20.6206 104.369 12.5984 102.309 10.8903 97.6221C8.91836 92.2086 17.1484 88.1481 18.1552 77.3706C18.9969 68.3837 14.0026 63.3592 16.9563 60.1512C18.7911 58.1604 22.6928 57.9397 24.2342 59.5999C26.7517 62.3064 22.5228 69.5211 23.9005 70.3164C24.6374 70.7432 26.7511 69.1986 31.7678 63.0513C33.819 63.9663 35.8659 64.8783 37.9171 65.7933C32.176 73.1277 30.9203 75.8837 31.5252 76.5631C32.9043 78.1009 43.1542 68.2156 47.6183 71.0184Z" fill="#AECC53"/>
<path d="M76.1946 69.9024C75.3499 74.0258 69.3163 77.0683 68.6638 77.3947C66.6377 78.4182 65.1203 78.6697 64.8544 79.741C64.4413 81.3834 67.6791 82.1263 67.8233 84.4804C67.9836 87.0969 64.2308 90.3712 60.7019 91.424C57.3586 92.4216 53.4779 91.6377 51.3189 89.1928C48.9583 86.5213 50.3193 83.7526 47.8409 81.9236C45.3802 80.1067 42.9471 82.0286 41.4735 80.4207C38.9209 77.6325 43.9978 69.3916 42.579 68.5234C41.5441 67.8888 39.1261 72.4323 34.4532 73.976C29.1908 75.7148 22.6656 73.1187 21.834 69.2814C21.1609 66.1831 24.3228 62.8578 23.6061 62.277C22.739 61.5752 19.1082 67.1887 14.2151 67.4166C10.7065 67.5804 8.25113 64.8966 7.42676 63.9979C6.90562 63.4331 3.31377 59.5109 4.63914 56.0217C5.66331 53.3221 8.63773 53.5195 9.46175 51.078C10.5258 47.9088 6.0379 46.0957 6.40545 42.4496C6.89898 37.5861 15.7773 31.9454 20.5368 33.9484C24.1403 35.4671 24.7801 41.1155 25.7928 40.7808C26.7936 40.4446 25.035 35.2784 27.3959 32.5662C30.706 28.7542 41.5504 30.4639 43.8239 36.0037C45.0065 38.8917 43.3628 41.6113 44.9488 42.7665C46.7427 44.0815 49.2992 40.8888 53.9921 40.6804C59.9331 40.4188 63.7732 45.1858 64.3246 45.8871C66.1479 48.2278 68.3522 52.715 66.7826 54.9431C65.9559 56.1191 64.2813 56.3741 63.1477 58.5485C62.7519 59.3063 62.5165 59.7598 62.6442 60.2007C63.1159 61.8218 67.6085 59.9628 71.3603 61.7106C74.2876 63.0756 76.8559 66.6804 76.1946 69.9024Z" fill="#AECC53"/>
<path d="M10.9736 39.1327C10.5042 39.0736 8.7513 41.9644 9.13664 44.8683C9.58568 48.2601 12.5357 48.57 12.4455 51.2043C12.3503 53.9318 9.13706 54.7465 8.99163 57.6916C8.87498 60.0501 10.8154 61.8832 12.2377 62.6698C15.8133 64.6403 20.4846 62.3927 20.4869 61.7688C20.4884 61.2798 17.6467 61.9263 15.058 59.9456C14.2719 59.3436 12.8131 58.2292 12.739 56.5349C12.6138 53.7423 16.3546 52.4329 16.1929 50.0476C16.0487 47.9321 13.0492 48.2012 11.5848 45.0907C10.2331 42.2239 11.4475 39.1949 10.9736 39.1327Z" fill="#AECC53"/>
<path d="M54.0898 42.416C50.3117 42.0625 47.8359 46.1092 44.8095 45.206C41.1056 44.1031 41.1153 36.9398 40.4667 37.1077C39.7409 37.2944 38.8094 46.4142 42.4771 48.1052C45.3114 49.4073 48.3651 45.1062 53.7142 45.4442C56.8264 45.638 59.1502 47.3045 60.606 48.6619C59.3584 45.9751 57.2888 42.7201 54.0898 42.416Z" fill="#AECC53"/>
<path d="M69.0373 74.2552C69.1458 73.4645 66.8545 72.5421 64.7497 72.384C62.3324 72.2018 58.2397 72.8867 57.3219 75.1617C56.219 77.892 60.6048 80.6484 59.2969 83.4723C58.513 85.1672 56.3464 85.4252 56.4418 86.057C56.5643 86.8684 60.2603 87.3148 61.5511 85.614C62.165 84.8102 62.0625 83.6448 61.8648 81.3126C61.656 78.8632 61.2643 78.7082 61.5116 77.9984C62.4633 75.282 68.8604 75.5478 69.0373 74.2552Z" fill="#AECC53"/>
<path d="M22.2849 96.3507C21.5893 95.7196 19.8414 94.1455 17.1684 94.3322C15.8816 94.4237 13.2151 95.0016 12.7586 96.4792C12.1993 98.2807 15.0483 101.05 18.1599 101.359C20.5887 101.601 23.6162 100.384 23.9025 98.8813C24.077 97.9739 23.2045 97.1847 22.2849 96.3507Z" fill="#AECC53"/>
<path d="M23.0492 91.5541C22.8953 91.5147 23.5699 82.9757 28.7059 79.6106C31.7619 77.6065 35.4148 78.0882 35.4841 78.6251C35.5779 79.288 30.1752 79.7263 26.3782 84.1636C23.3768 87.6618 23.1543 91.58 23.0492 91.5541Z" fill="#AECC53"/>
<path d="M89.3028 155.806C89.6392 164.867 85.3448 171.455 83.4086 174.022C77.0893 182.392 68.1441 184.637 62.6701 186.014C57.5645 187.295 49.8471 189.233 40.9393 185.917C38.484 185.002 29.4495 181.475 24.6172 171.665C23.6631 169.725 19.2854 160.265 23.3169 150.277C24.0628 148.428 25.963 143.903 30.7968 140.55C31.9698 139.738 38.3118 135.341 44.7575 137.127C48.5188 138.171 49.8263 140.635 52.8765 140.072C55.0662 139.668 55.5225 138.19 57.8911 136.375C62.1855 133.079 68.1707 132.189 72.8965 133.192C77.8963 134.255 81.0398 137.341 82.5039 138.822C88.7836 145.152 89.2095 153.332 89.3028 155.806Z" fill="#AECC53"/>
<path d="M51.9229 146.717C48.1238 145.919 45.2479 149.38 43.93 148.285C42.5811 147.157 45.3663 143.349 43.9452 141.668C41.9392 139.295 34.3127 144.52 32.3546 142.365C30.9006 140.762 32.7845 135.324 36.4908 132.945C40.3618 130.463 46.7684 130.985 46.7113 130.987C46.7113 130.987 35.8192 129.501 35.7177 127.629C35.6025 125.489 49.4646 121.053 52.9407 125.378C54.9245 127.849 52.8331 132.323 54.1547 132.869C55.6947 133.506 57.8895 127.197 62.6617 126.344C67.4516 125.493 72.5256 130.55 72.0436 131.712C71.64 132.676 67.6094 130.51 63.7303 132.678C61.707 133.808 59.666 136.159 60.1858 137.715C60.9322 139.937 66.0878 138.107 70.1564 141.157C74.9085 144.714 75.2605 152.734 73.9499 153.338C72.955 153.795 71.4861 149.779 66.3623 147.011C62.3346 144.833 57.806 144.376 57.3452 145.365C56.7087 146.743 54.2932 147.214 51.9229 146.717Z" fill="#AECC53"/>
<path opacity="0.5" d="M36.5225 169.9C42.3686 179.893 54.6813 181.672 54.1223 183.342C53.6721 184.681 45.4538 184.458 38.5643 180.25C37.0866 179.349 28.7939 174.285 27.5608 164.717C26.4562 156.167 31.5259 148.132 33.2476 148.5C35.2326 148.93 30.7546 160.037 36.5225 169.9Z" fill="#AECC53"/>
<path opacity="0.5" d="M78.4345 171.581C82.9867 165.057 81.4531 157.65 82.5913 157.613C83.5245 157.586 85.2282 162.513 84.0391 167.163C83.1666 170.588 80.9668 172.904 79.946 173.984C79.3592 174.601 78.1696 175.769 76.4031 176.888C73.0293 179.024 68.9909 180.072 68.7205 179.509C68.3922 178.829 74.5111 177.213 78.4345 171.581Z" fill="#AECC53"/>
<path d="M41.7467 133.594C41.5329 133.121 37.5296 133.63 35.4171 136.443C35.2737 136.633 33.6858 138.787 34.3981 139.835C34.6787 140.25 35.3132 140.487 39.6312 140.062C43.2006 139.712 44.1023 139.416 44.9878 140.017C45.6729 140.483 46.3961 141.528 46.3626 144.12C46.6339 143.58 47.809 141.13 46.7336 139.589C46.1466 138.747 45.0979 138.514 43.0341 138.092C39.7858 137.424 38.2183 137.78 38.001 137.176C37.6296 136.131 41.986 134.123 41.7467 133.594Z" fill="#AECC53"/>
<path d="M60.7071 140.782C60.7589 140.429 65.7784 139.55 69.5904 142.305C73.5918 145.198 74.7267 150.98 73.7829 151.551C72.6335 152.248 67.3961 145.795 67.6158 145.562C67.8082 145.36 72.1927 149.721 72.6101 149.331C72.9347 149.032 71.0865 145.703 67.8412 143.472C64.2277 140.985 60.6663 141.086 60.7071 140.782Z" fill="#AECC53"/>
<path d="M116.135 115.962C120.818 116.516 125.064 113.168 125.617 108.484C126.171 103.801 122.823 99.5555 118.139 99.0021C113.456 98.4486 109.211 101.797 108.657 106.48C108.104 111.163 111.452 115.409 116.135 115.962Z" fill="#AECC53"/>
<path d="M115.014 138.608C117.873 138.946 120.464 136.903 120.801 134.045C121.139 131.186 119.096 128.595 116.237 128.258C113.379 127.92 110.788 129.963 110.45 132.821C110.113 135.68 112.156 138.271 115.014 138.608Z" fill="#AECC53"/>
<path d="M133.207 123.234C134.636 123.403 135.931 122.381 136.1 120.952C136.269 119.523 135.247 118.228 133.818 118.059C132.389 117.89 131.094 118.912 130.925 120.341C130.756 121.77 131.777 123.065 133.207 123.234Z" fill="#AECC53"/>
</svg>
